<svg xmlns="http://www.w3.org/2000/svg" fill="none" viewBox="0 0 21 18"><path fill="#ED1C40" d="M18.4 9.6 10.5 17 2.6 9.6h15.8Zm-15.8 0A5 5 0 0 1 1 5.9a4.8 4.8 0 0 1 1.8-3.7 5.4 5.4 0 0 1 4-1.2 5.5 5.5 0 0 1 3.7 2 5.2 5.2 0 0 1 3.7-2 5.6 5.6 0 0 1 4 1.3A5 5 0 0 1 20 5.9a4.8 4.8 0 0 1-1.6 3.7"/><path stroke="#ED1C40" stroke-linecap="round" stroke-linejoin="round" stroke-width="2" d="M2.6 9.6A5 5 0 0 1 1 5.9a4.8 4.8 0 0 1 1.8-3.7 5.4 5.4 0 0 1 4-1.2 5.5 5.5 0 0 1 3.7 2 5.2 5.2 0 0 1 3.7-2 5.6 5.6 0 0 1 4 1.3A5 5 0 0 1 20 5.9a4.8 4.8 0 0 1-1.6 3.7m0 0L10.5 17 2.6 9.6h15.8Z"/></svg>